# xmcd CD database file
# Copyright (C) 1993-1998 Ti Kan
#
# Track frame offsets:
#  182
#  18185
#  35245
#  51510
#  70025
#  90152
#  108130
#  126890
#  144825
#  164412
#  179007
#  194705
#  212442
#  231465
#  252762
#  277147
#  300815
#  316482
#
# Disc length: 4531 seconds
#
# Revision: 1
# Processed by: cddbd v1.4b41PL1 Copyright (c) Steve Scherf et al.
# Submitted via: CDWizzard Release:4.35
#
DISCID=fe11b112
DTITLE=Imagination - The very best of Imagination
DYEAR=1900
DGENRE=
TTITLE0=Just an illusion
TTITLE1=Music and Lights
TTITLE2=Body Talk
TTITLE3=In and out of Love
TTITLE4=Flashback
TTITLE5=In the heat of the night
TTITLE6=Changes
TTITLE7=Looking at midnight
TTITLE8=New Dimensions
TTITLE9=State of Love
TTITLE10=Thank you my love
TTITLE11=Shoo be doo da dabba doobee
TTITLE12=Sunshine
TTITLE13=Burnin' Up
TTITLE14=Tell mo do you want my love
TTITLE15=One More Love
TTITLE16=All Nights Lovin
TTITLE17=Megamix
EXTD=
EXTT0=
EXTT1=
EXTT2=
EXTT3=
EXTT4=
EXTT5=
EXTT6=
EXTT7=
EXTT8=
EXTT9=
EXTT10=
EXTT11=
EXTT12=
EXTT13=
EXTT14=
EXTT15=
EXTT16=
EXTT17=
PLAYORDER=
